<?xml version="1.0" standalone="no"?>
<!DOCTYPE svg PUBLIC "-//W3C//DTD SVG 20010904//EN"
 "http://www.w3.org/TR/2001/REC-SVG-20010904/DTD/svg10.dtd">
<svg version="1.0" xmlns="http://www.w3.org/2000/svg"
 width="260.000000pt" height="260.000000pt" viewBox="0 0 260.000000 260.000000"
 preserveAspectRatio="xMidYMid meet">
<metadata>
Created by potrace 1.14, written by Peter Selinger 2001-2017
</metadata>
<g transform="translate(0.000000,260.000000) scale(0.100000,-0.100000)"
fill="#000000" stroke="none">
<path d="M307 2594 c-4 -4 -3 -12 0 -18 18 -29 22 -132 5 -128 -9 1 -8 -7 4
-30 11 -22 13 -33 5 -36 -8 -3 -8 -9 -1 -23 6 -10 8 -19 5 -19 -3 0 -1 -9 5
-21 8 -15 8 -24 0 -34 -9 -11 -7 -25 9 -59 11 -25 17 -46 14 -46 -3 0 0 -7 7
-15 6 -8 9 -19 5 -25 -3 -5 -2 -10 4 -10 5 0 13 -15 16 -32 4 -18 10 -37 13
-43 4 -5 8 -21 10 -35 1 -14 7 -36 12 -50 13 -34 20 -130 10 -130 -9 0 -4 -86
6 -101 3 -5 -2 -9 -11 -9 -18 0 -13 -35 13 -85 19 -35 21 -48 9 -56 -12 -8 2
-89 14 -89 6 0 7 -4 4 -10 -3 -5 -3 -16 1 -22 5 -7 9 -22 11 -33 8 -50 33
-115 45 -115 4 0 8 -6 8 -13 0 -8 9 -24 20 -37 21 -25 26 -50 10 -50 -5 0 -10
4 -10 10 0 10 -39 34 -46 28 -2 -3 10 -30 26 -62 17 -32 28 -62 25 -66 -3 -5
8 -37 25 -71 17 -33 26 -58 19 -53 -7 4 -1 -13 12 -37 24 -45 66 -91 110 -121
19 -14 21 -17 7 -17 -22 -1 -24 -29 -3 -37 8 -4 15 -13 15 -21 0 -8 -4 -12 -9
-8 -18 10 -21 -13 -6 -41 8 -16 11 -32 6 -37 -4 -4 -2 -25 5 -46 19 -55 8
-110 -22 -117 -13 -3 -25 -11 -25 -18 -3 -22 3 -41 14 -48 9 -6 8 -8 -1 -8 -8
0 -1 -17 17 -44 17 -25 33 -53 35 -63 9 -46 30 -83 49 -89 39 -13 126 -10 132
4 3 7 10 10 16 7 6 -4 8 -13 5 -21 -3 -7 -1 -16 5 -19 5 -4 8 -21 6 -39 -2
-18 4 -47 15 -66 10 -19 18 -30 18 -25 0 6 6 3 13 -6 23 -31 70 -47 127 -43
30 2 56 8 58 14 2 5 8 8 13 4 5 -3 9 0 9 6 0 6 26 37 59 68 65 64 73 82 77
167 3 81 9 111 25 132 39 50 84 93 96 93 7 0 13 4 13 9 0 5 10 11 23 13 14 2
21 9 19 19 -1 10 13 23 39 35 23 10 36 20 30 22 -21 7 -11 21 27 41 40 21 142
109 142 123 0 5 -7 2 -16 -6 -15 -15 -44 -22 -44 -11 0 17 73 76 123 101 55
26 107 73 107 95 0 6 -10 3 -22 -5 -42 -29 -54 -18 -19 18 33 34 29 56 -7 37
-32 -17 -33 0 -1 27 30 24 31 25 65 9 20 -10 45 -14 63 -11 33 7 39 0 43 -46
2 -21 11 -38 25 -47 17 -11 23 -25 23 -49 0 -19 5 -43 12 -53 9 -15 8 -26 -5
-52 -9 -19 -12 -35 -7 -37 8 -3 3 -23 -17 -72 -10 -26 -12 -40 -3 -40 14 0 1
-51 -20 -78 -11 -13 -17 -28 -15 -32 3 -5 1 -11 -5 -15 -5 -3 -10 -14 -10 -24
0 -10 -7 -24 -15 -31 -8 -7 -13 -15 -11 -19 2 -3 -5 -19 -15 -36 -19 -31 -35
-62 -50 -102 -21 -54 -33 -81 -55 -126 -27 -52 -54 -124 -58 -147 -1 -9 -5
-21 -10 -28 -6 -9 76 -12 383 -12 l391 0 0 945 0 945 -29 -6 c-16 -4 -32 -1
-35 5 -4 6 -12 9 -17 6 -23 -15 14 51 41 72 13 10 13 11 0 9 -19 -2 -67 -34
-96 -62 -24 -25 -89 -27 -89 -3 -2 54 55 153 140 243 18 19 30 37 27 40 -2 3
7 10 22 16 15 5 25 14 22 19 -4 5 0 11 6 14 7 2 11 7 8 10 -3 4 -45 -13 -92
-37 -48 -24 -89 -42 -92 -38 -3 3 -6 0 -6 -6 0 -6 -10 -14 -22 -18 -13 -4 -33
-15 -46 -25 -12 -9 -40 -20 -62 -24 -22 -4 -43 -13 -47 -20 -5 -7 -21 -16 -38
-19 -16 -3 -43 -8 -58 -11 -29 -6 -97 13 -97 26 0 4 6 10 13 13 6 3 5 4 -5 3
-21 -3 -22 2 -10 33 9 22 113 175 141 207 18 20 13 25 -11 11 -13 -6 -32 -13
-43 -15 -11 -2 -32 -12 -47 -23 -15 -11 -30 -20 -34 -20 -4 0 -17 -8 -28 -19
-12 -10 -32 -22 -46 -26 l-25 -8 22 24 c77 84 106 120 135 171 36 63 24 59
170 60 32 0 56 3 54 7 -2 3 10 6 27 6 45 1 177 18 197 25 3 1 9 2 14 1 16 -3
36 22 36 46 0 24 -1 24 -95 22 -53 -1 -98 -6 -101 -10 -3 -5 -9 -7 -13 -5 -4
3 -32 -2 -62 -10 -60 -17 -86 -22 -141 -28 -35 -4 -37 -3 -28 19 5 12 6 26 3
29 -4 3 -74 6 -156 6 -147 0 -149 0 -169 -25 -11 -14 -26 -25 -34 -25 -8 0
-14 -7 -14 -15 0 -8 -7 -15 -15 -15 -8 0 -15 -7 -15 -15 0 -8 -9 -15 -20 -15
-20 0 -44 -32 -33 -43 3 -4 -2 -9 -11 -13 -10 -4 -22 -17 -27 -30 -4 -13 -16
-24 -24 -24 -9 0 -13 5 -10 10 3 6 1 10 -4 10 -6 0 -11 -9 -11 -20 0 -13 -5
-18 -15 -14 -8 4 -12 11 -8 18 4 7 2 8 -5 1 -6 -5 -12 -29 -13 -53 -2 -24 -6
-45 -10 -48 -9 -5 -25 44 -25 76 1 14 -2 27 -6 30 -3 3 -8 19 -11 35 -12 64
-17 84 -33 121 -18 44 -29 54 -61 54 -19 0 -22 -5 -22 -37 0 -21 -2 -56 -5
-78 -2 -22 -7 -69 -10 -104 -2 -35 -8 -67 -13 -70 -4 -3 -9 -17 -11 -31 -1
-13 -7 -27 -13 -31 -6 -3 -10 -9 -10 -13 3 -18 0 -18 -14 0 -11 15 -15 16 -16
4 -1 -8 -1 -19 0 -24 1 -4 -4 -25 -11 -45 -7 -20 -13 -38 -13 -41 -15 -55
-101 -133 -167 -149 -33 -9 -56 -22 -70 -42 -21 -29 -48 -39 -48 -19 0 6 -8
22 -17 37 -10 14 -19 35 -20 47 -7 43 -39 41 -48 -3 -2 -13 -9 -29 -16 -37 -9
-11 -8 -14 2 -14 9 0 10 -3 3 -8 -6 -4 -12 -14 -12 -22 -8 -79 -13 -115 -17
-118 -2 -3 -11 3 -20 12 -9 9 -20 16 -24 16 -4 0 -8 6 -8 13 0 6 -16 67 -36
134 -32 112 -80 223 -99 231 -5 2 -8 8 -8 12 0 12 -48 83 -63 92 -7 4 -8 8 -4
8 8 0 -29 58 -43 70 -4 3 -21 32 -39 65 -18 33 -38 66 -43 73 -6 6 -7 12 -2
12 5 0 -6 14 -24 30 -30 27 -40 30 -96 30 -34 0 -66 -3 -69 -6z"/>
</g>
</svg>
